<?xml version="1.0" encoding="utf-8"?>
<!-- Generator: Adobe Illustrator 20.0.0, SVG Export Plug-In . SVG Version: 6.00 Build 0)  -->
<svg version="1.1" id="Layer_1" xmlns="http://www.w3.org/2000/svg" xmlns:xlink="http://www.w3.org/1999/xlink" x="0px" y="0px"
	 viewBox="0 0 266.2 50" style="enable-background:new 0 0 266.2 50;" xml:space="preserve">
<style type="text/css">
	.st0{fill:#1D1D1B;}
</style>
<g>
	<path id="CoderDojoBelgium" class="st0" d="M60,22.9c0,5.4,3.7,9.6,8.9,9.6c1.9,0,5.9-0.6,5.9-3.1c0-0.9-0.8-1.7-1.7-1.8
		c-1.1,0-1.9,1.1-4.1,1.1c-3.2,0-4.9-2.7-4.9-5.7c0-3.2,1.7-5.9,4.9-5.9c2.2,0,2.9,0.9,4,0.9c0.9,0,1.6-0.8,1.6-1.7c0,0,0,0,0-0.1
		c0-2.3-3.7-2.9-5.6-2.9C63.6,13.4,60,17.5,60,22.9z M82.7,18.1c-4,0-6.7,3.5-6.7,7.3c0,3.9,2.7,7.2,6.7,7.2s6.7-3.3,6.7-7.2
		C89.4,21.5,86.6,18.1,82.7,18.1z M82.7,21.5c2.1,0,3,2,3,3.8s-0.9,3.8-3,3.8s-3-2-3-3.8S80.6,21.5,82.7,21.5z M103.8,14.3
		c0.1-1-0.6-2-1.7-2.1s-2,0.6-2.1,1.7c0,0.1,0,0.3,0,0.4v5.1c-1-0.8-2.3-1.3-3.6-1.3c-4,0-6,3.8-6,7.4c0,3.5,2.4,7,6.2,7
		c1.4,0,2.6-0.6,3.4-1.7c0.1,0.9,0.9,1.6,1.9,1.6c1,0,1.9-0.9,1.9-1.9c0-0.1,0-0.1,0-0.2V14.3L103.8,14.3z M100,25.2
		c0,1.8-0.9,3.9-2.9,3.9c-1.9,0-2.9-2-2.9-3.8c0-1.8,1-3.8,2.9-3.8C99.1,21.5,100,23.4,100,25.2L100,25.2z M116.9,26.5
		c0.8,0.1,1.5-0.4,1.6-1.2c0-0.2,0-0.3,0-0.5c-0.1-3.7-3-6.7-6.7-6.8c-4,0-6.7,3.5-6.7,7.3c-0.2,3.8,2.7,7,6.4,7.2
		c0.2,0,0.4,0,0.6,0c2.8,0,6.1-1.6,6.1-3.2c0-0.9-0.7-1.5-1.5-1.6c-1,0-2.3,1.5-4.2,1.5c-1.7,0-3.3-0.9-3.5-2.7L116.9,26.5
		L116.9,26.5z M108.8,24c0.1-1.6,1.4-2.8,3-2.9c1.6,0,2.9,1.3,3,2.9H108.8L108.8,24z M119.8,30.3c-0.1,1,0.6,2,1.7,2.1
		s2-0.6,2.1-1.7c0-0.1,0-0.3,0-0.4v-5.7c0-1.5,1.1-2,2.3-2.5s2.2-0.6,2.2-1.8c0.1-1-0.6-1.9-1.6-2c-0.1,0-0.1,0-0.2,0
		c-1.1,0-2.1,0.6-2.6,1.6h-0.1c0-1.2-0.8-1.6-1.8-1.6c-1,0-1.9,0.7-1.9,1.8c0,0,0,0.1,0,0.1L119.8,30.3L119.8,30.3z M128.6,30.2
		c0,1.1,0.8,1.9,1.9,2c0.1,0,0.1,0,0.2,0h4.5c5.4,0,8.9-3.5,8.9-9c0-5.8-3.3-9.5-9.2-9.5h-4.3c-1.1-0.1-1.9,0.8-2,1.8
		c0,0.1,0,0.1,0,0.2L128.6,30.2L128.6,30.2z M132.5,17.3h2.4c3.6,0,5.1,2.4,5.1,5.7c0,3.1-1.5,5.6-4.9,5.6h-2.6V17.3L132.5,17.3z
		 M152,18.1c-4,0-6.7,3.5-6.7,7.3c0,3.9,2.7,7.2,6.7,7.2s6.7-3.3,6.7-7.2C158.7,21.5,156,18.1,152,18.1L152,18.1z M152,21.5
		c2.1,0,3,2,3,3.8s-0.9,3.8-3,3.8s-3-2-3-3.8S150,21.5,152,21.5L152,21.5z M160.3,35.8c-0.1,1,0.6,2,1.7,2.1c1,0.1,2-0.6,2.1-1.7
		c0-0.1,0-0.3,0-0.4V20.3c0.1-1-0.6-2-1.7-2.1c-1-0.1-2,0.6-2.1,1.7c0,0.1,0,0.3,0,0.4V35.8z M162.1,12.6c-1.1,0-2.1,0.9-2.1,2.1
		c0,1.2,0.9,2.1,2.1,2.2c1.2,0,2.1-0.9,2.1-2.1C164.2,13.5,163.3,12.6,162.1,12.6z M172.2,18.1c-4,0-6.7,3.5-6.7,7.3
		c0,3.9,2.7,7.2,6.7,7.2s6.7-3.3,6.7-7.2C178.9,21.5,176.2,18.1,172.2,18.1L172.2,18.1z M172.2,21.5c2.1,0,3,2,3,3.8s-0.9,3.8-3,3.8
		s-3-2-3-3.8S170.2,21.5,172.2,21.5L172.2,21.5z M183.3,15.7h2.7c1.5-0.2,2.8,0.9,3,2.3c0,0.2,0,0.4,0,0.5c0.1,1.6-1.1,2.9-2.7,3
		c-0.1,0-0.2,0-0.4,0h-2.6C183.3,21.5,183.3,15.7,183.3,15.7z M183.3,23.4h3.3c2.4,0,3.8,1.5,3.8,3.4c0,2.1-1.6,3.4-3.9,3.4h-3.2
		V23.4L183.3,23.4z M181,31c-0.1,0.6,0.4,1.2,1,1.2c0.1,0,0.2,0,0.2,0h4.4c3.9,0,6.1-2.5,6.1-5.4c0-2.3-1.7-4.3-4-4.6v-0.1
		c1.7-0.6,2.7-2.3,2.6-4.1c0-2.1-1.7-4.4-5-4.4h-4c-0.6-0.1-1.2,0.4-1.2,1c0,0.1,0,0.2,0,0.2L181,31L181,31z M205,26.2
		c0.6,0.1,1.1-0.2,1.3-0.8c0-0.1,0-0.3,0-0.4c0-3.3-2.2-6.7-6-6.7c-3.9,0-6.2,3.3-6.2,7.1c0,3.7,1.9,7.1,6.3,7.1
		c2.7,0,5.5-1.7,5.5-2.8c0.1-0.5-0.3-1-0.8-1c0,0,0,0,0,0c-0.9,0-1.6,1.9-4.7,1.9c-2.2,0.1-4-1.6-4.1-3.8c0-0.1,0-0.3,0-0.4
		L205,26.2L205,26.2z M196.4,24.5c0.1-2.1,1.1-4.4,3.9-4.3c2.5,0,3.7,2.3,3.7,4.3H196.4L196.4,24.5z M210.7,13.4
		c0-0.6-0.4-1.2-1.1-1.2c-0.6,0-1.2,0.4-1.2,1.1c0,0,0,0.1,0,0.1v17.8c0,0.6,0.4,1.2,1.1,1.2c0.6,0,1.2-0.4,1.2-1.1c0,0,0-0.1,0-0.1
		V13.4L210.7,13.4z M225.1,19.3c0-0.6-0.4-1.1-1-1.1c0,0,0,0-0.1,0c-0.6-0.1-1.1,0.4-1.2,0.9c0,0.1,0,0.1,0,0.2V20h0
		c-0.9-1.1-2.1-1.7-3.5-1.7c-3.9,0-6.1,3.4-6.1,7.1s2.2,7.1,6.1,7.1c1.4,0,2.8-0.7,3.5-2h0.1v1.2c0,2-0.9,4.3-3.8,4.3
		c-2.5,0-3.5-1.6-4.5-1.6c-0.5,0-1,0.4-1,1c0,0,0,0.1,0,0.1c0,1.2,2.9,2.5,5.3,2.5c3.7,0,6.2-2.5,6.2-6.6L225.1,19.3L225.1,19.3z
		 M215.5,25.3c0-2.3,1-5.1,3.8-5.1s3.8,2.8,3.8,5.1s-1,5.1-3.8,5.1S215.5,27.6,215.5,25.3L215.5,25.3z M230.5,19.4
		c0-0.6-0.4-1.2-1.1-1.2c-0.6,0-1.2,0.4-1.2,1.1c0,0,0,0.1,0,0.1v11.7c0,0.6,0.4,1.2,1.1,1.2c0.6,0,1.2-0.4,1.2-1.1c0,0,0-0.1,0-0.1
		V19.4z M228,14.9c0,0.8,0.6,1.4,1.4,1.4s1.4-0.6,1.4-1.4c0-0.8-0.6-1.4-1.4-1.4l0,0C228.6,13.5,228,14.2,228,14.9z M233.5,26.8
		c0,4.1,2.7,5.5,5.5,5.5s5.5-1.5,5.5-5.5v-7.4c0-0.6-0.4-1.2-1.1-1.2c-0.6,0-1.2,0.4-1.2,1.1c0,0,0,0.1,0,0.1v7.3
		c0,2.4-1,3.6-3.2,3.6s-3.2-1.2-3.2-3.6v-7.3c0-0.6-0.4-1.2-1.1-1.2c-0.6,0-1.2,0.4-1.2,1.1c0,0,0,0.1,0,0.1L233.5,26.8L233.5,26.8z
		 M255.7,31.1c0,0.6,0.4,1.2,1.1,1.2s1.2-0.4,1.2-1.1c0,0,0-0.1,0-0.1v-7.7c0-2,1.1-3.2,2.9-3.2c1.9,0,3,1.2,3,3.2v7.7
		c0,0.6,0.4,1.2,1.1,1.2c0.6,0,1.2-0.4,1.2-1.1c0,0,0-0.1,0-0.1v-7.7c0-3.9-2.7-5.3-4.8-5.3c-1.7,0-3.4,0.9-4.2,2.3
		c-0.7-1.4-2.2-2.3-3.8-2.3c-1.4-0.1-2.7,0.6-3.5,1.7l-0.1-0.1v-0.4c0-0.6-0.4-1.2-1.1-1.2c-0.6,0-1.2,0.4-1.2,1.1c0,0,0,0.1,0,0.1
		v11.7c0,0.6,0.4,1.2,1.1,1.2c0.6,0,1.2-0.4,1.2-1.1c0,0,0-0.1,0-0.1v-7.7c0-2,1.1-3.2,2.9-3.2c1.9,0,3,1.2,3,3.2L255.7,31.1
		L255.7,31.1z"/>
</g>
<path class="st0" d="M21,15.5V6.6c0-0.8,0.6-1.4,1.4-1.4H27c0.4,0,0.7,0.1,1,0.4c0.3,0.3,0.4,0.6,0.4,1v8.8c0,0.8-0.6,1.4-1.4,1.4
	l0,0h-4.6C21.6,16.9,21,16.3,21,15.5C21,15.5,21,15.5,21,15.5L21,15.5L21,15.5z M27,15.4V6.7h-4.5v8.7C22.5,15.4,27,15.4,27,15.4z
	 M25,0C11.2,0,0,11.2,0,25s11.2,25,25,25s25-11.2,25-25S38.8,0,25,0z M29.4,42.9c0,0.4-0.3,0.7-0.7,0.7c0,0,0,0,0,0h-6
	c-0.2,0-0.4-0.1-0.5-0.2c-0.1-0.1-0.2-0.3-0.2-0.5c0-0.2,0.1-0.4,0.2-0.5c0.1-0.1,0.3-0.2,0.5-0.2H25v-8.7h-2.2
	c-0.4,0-0.7-0.3-0.7-0.7c0-0.4,0.3-0.7,0.7-0.7h3.7v10.2h1.5v-3.1c0-0.4,0.3-0.8,0.7-0.8c0.4,0,0.8,0.3,0.8,0.7c0,0,0,0,0,0.1V42.9
	L29.4,42.9z M24.7,25c-6.5,0-11.8,5.4-11.8,11.9c0,6.4,5.1,11.6,11.5,11.8C11.3,48.7,0.7,38.1,0.7,25c0-13.1,10.6-23.7,23.7-23.7
	c0.1,0,0.2,0,0.4,0c6.5-0.1,11.9,5.1,12,11.7c0.1,6.5-5.1,11.9-11.7,12C25,25,24.9,25,24.7,25z"/>
</svg>
